<svg width="107" height="77" viewBox="0 0 107 77" fill="none" xmlns="http://www.w3.org/2000/svg">
<path d="M1.8066 16.6615C1.38695 16.6615 0.971319 16.5173 0.628338 16.2237C-0.127249 15.573 -0.213995 14.4341 0.436668 13.6745L8.45945 4.34316C8.80243 3.94569 9.30582 3.71367 9.82939 3.71367H9.83645C10.3641 3.71771 10.8664 3.94872 11.2064 4.35326L17.7071 12.022L23.904 4.38244C24.2369 3.97389 24.7322 3.72772 25.2639 3.71362C25.8247 3.71766 26.3019 3.92345 26.656 4.31385L35.0189 13.6452C35.6837 14.3897 35.6231 15.5326 34.8776 16.1974C34.1362 16.8703 32.9942 16.8087 32.3254 16.0602L25.3798 8.30472L19.1436 15.9918C18.8036 16.4074 18.2972 16.6536 17.7585 16.6606C17.1542 16.592 16.7104 16.4326 16.3593 16.021L9.81939 8.30581L3.18159 16.0321C2.82247 16.4518 2.31605 16.6616 1.80662 16.6616L1.8066 16.6615Z" fill="#2F5061"/>
<path opacity="0.7" d="M33.6721 29.5586C33.4331 29.5586 33.2091 29.4537 33.0538 29.2731L30.1182 25.8059L27.1352 29.277C26.8426 29.6169 26.3292 29.6603 25.9892 29.3597C25.6492 29.0702 25.6129 28.5537 25.9024 28.2167L29.5037 24.0261C29.6591 23.8456 29.8831 23.7437 30.1181 23.7437H30.1221C30.3572 23.7437 30.5852 23.8486 30.7365 24.0291L33.6539 27.4752L36.4381 24.0444C36.5904 23.8598 36.8104 23.7518 37.0494 23.7448C37.2451 23.7952 37.5155 23.8386 37.6749 24.0161L41.4275 28.2067C41.7271 28.5397 41.6989 29.0531 41.362 29.3497C41.029 29.6534 40.5156 29.6241 40.216 29.2841L37.0999 25.8029L34.3015 29.256C34.1492 29.4436 33.9222 29.5526 33.6801 29.5556C33.6791 29.5586 33.6751 29.5586 33.6721 29.5586L33.6721 29.5586Z" fill="#2F5061"/>
<path d="M54.3735 21.3308C53.9538 21.3308 53.5382 21.1866 53.1952 20.893C52.4396 20.2424 52.3529 19.1034 53.0036 18.3438L61.0263 9.01247C61.3693 8.615 61.8727 8.38299 62.3963 8.38299H62.4033C62.931 8.38702 63.4333 8.61804 63.7733 9.02257L70.2739 16.6913L76.4709 9.05175C76.8038 8.6432 77.2991 8.39704 77.8307 8.38293C78.3513 8.40513 78.8688 8.59276 79.2229 8.98316L87.5858 18.3145C88.2506 19.059 88.19 20.2019 87.4445 20.8667C86.7031 21.5396 85.5611 21.474 84.8923 20.7295L77.9467 12.974L71.7105 20.6611C71.3705 21.0767 70.8641 21.3229 70.3254 21.3299C69.7938 21.3047 69.2732 21.1019 68.9262 20.6903L62.3863 12.9751L55.7485 20.7014C55.3853 21.1211 54.8829 21.3309 54.3735 21.3309L54.3735 21.3308Z" fill="#2F5061"/>
<path d="M33.6721 46.5308C33.321 46.5308 32.971 46.4078 32.6855 46.1616C32.053 45.6189 31.9803 44.6615 32.5261 44.028L39.2396 36.2191C39.5291 35.8831 39.9447 35.6915 40.3855 35.6915H40.3896C40.8345 35.6955 41.2541 35.8902 41.5396 36.2261L46.977 42.6441L52.1611 36.2483C52.4396 35.9053 52.8552 35.7026 53.3001 35.6915C53.748 35.6844 54.1676 35.861 54.4642 36.1939L61.4641 44.0028C62.0209 44.6242 61.9705 45.5826 61.3481 46.1394C60.7267 46.6963 59.7713 46.6458 59.2115 46.0234L53.3977 39.5339L48.1842 45.9658C47.8947 46.3239 47.5013 46.5408 47.009 46.5267C46.5641 46.5267 46.1414 46.328 45.8559 45.9921L40.3823 39.5348L34.8248 45.999C34.5211 46.3501 34.0985 46.5307 33.6718 46.5307L33.6721 46.5308Z" fill="#2F5061"/>
<path d="M70.6714 39.2404C70.397 39.2404 70.1257 39.1496 69.9017 38.9579C69.4064 38.5312 69.3519 37.7867 69.7756 37.2914L75.0111 31.1954C75.2351 30.9351 75.5609 30.7869 75.9079 30.7869H75.912C76.259 30.7869 76.5879 30.9392 76.8088 31.2025L81.0539 36.2102L85.0991 31.2208C85.316 30.9535 85.6419 30.7941 85.9889 30.787C86.3581 30.8123 86.6648 30.9212 86.8968 31.1774L92.3523 37.2734C92.7861 37.7617 92.7467 38.5062 92.2615 38.9399C91.7773 39.3697 91.0288 39.3344 90.595 38.8492L86.0614 33.7869L81.994 38.8086C81.7701 39.08 81.4846 39.318 81.079 39.2424C80.732 39.2424 80.4031 39.0901 80.1792 38.8268L75.909 33.7868L71.5743 38.8337C71.3332 39.1031 71.0043 39.2403 70.6714 39.2403V39.2404Z" fill="#2F5061"/>
<path d="M1.16354 56.4501C0.896199 56.4501 0.624857 56.3593 0.407953 56.1717C-0.0802938 55.7521 -0.134785 55.0187 0.281855 54.5304L5.44091 48.5251C5.66486 48.2719 5.98365 48.1236 6.3226 48.1236H6.32664C6.6666 48.1236 6.99142 48.2759 7.21236 48.5321L11.3919 53.467L15.3795 48.5533C15.5964 48.289 15.9142 48.1306 16.2541 48.1235C16.6153 48.1457 16.9229 48.2537 17.1509 48.5069L22.5267 54.5122C22.9534 54.9934 22.913 55.7268 22.4359 56.1535C21.9618 56.5873 21.2213 56.5369 20.7946 56.0668L16.3297 51.0774L12.3198 56.0195C12.0989 56.2909 11.7741 56.4462 11.4271 56.4493C11.0911 56.4099 10.7512 56.305 10.5272 56.0407L6.31854 51.0735L2.04838 56.049C1.81434 56.3123 1.48849 56.4505 1.16367 56.4505L1.16354 56.4501Z" fill="#2F5061"/>
<path d="M31.0742 76.0823C30.6545 76.0823 30.2389 75.938 29.8959 75.6445C29.1403 74.9938 29.0536 73.8549 29.7042 73.0953L37.727 63.7639C38.07 63.3665 38.5734 63.1345 39.097 63.1345H39.104C39.6316 63.1385 40.134 63.3695 40.474 63.774L46.9746 71.4428L53.1716 63.8032C53.5045 63.3947 53.9998 63.1485 54.5314 63.1344C55.059 63.1667 55.5695 63.3442 55.9236 63.7346L64.2865 73.066C64.9512 73.8104 64.8907 74.9534 64.1452 75.6182C63.4038 76.2911 62.2618 76.2255 61.593 75.481L54.6474 67.7255L48.4111 75.4126C48.0712 75.8282 47.5648 76.0743 47.0261 76.0814C46.5015 75.9583 45.9779 75.8534 45.6269 75.4418L39.087 67.7266L32.4492 75.4529C32.087 75.8685 31.5806 76.0824 31.0742 76.0824L31.0742 76.0823Z" fill="#2F5061"/>
<path d="M70.3046 67.511C69.885 67.511 69.4694 67.3667 69.1264 67.0732C68.3708 66.4225 68.2841 65.2836 68.9347 64.524L76.9575 55.1926C77.3005 54.7952 77.8039 54.5632 78.3274 54.5632H78.3345C78.8621 54.5672 79.3645 54.7982 79.7044 55.2027L86.2051 62.8715L92.4021 55.2319C92.735 54.8234 93.2303 54.5772 93.7619 54.5631C94.3187 54.5924 94.7999 54.7729 95.154 55.1633L103.517 64.4947C104.182 65.2392 104.121 66.3821 103.376 67.0469C102.634 67.7198 101.492 67.6582 100.823 66.9097L93.8778 59.1542L87.6416 66.8413C87.3017 67.2569 86.7953 67.503 86.2565 67.5101C85.6745 67.4778 85.2044 67.2821 84.8573 66.8705L78.3174 59.1553L71.6796 66.8816C71.3165 67.2982 70.8141 67.5111 70.3047 67.5111L70.3046 67.511Z" fill="#2F5061"/>
<path opacity="0.7" d="M17.7201 42.7113C17.6151 42.7113 17.5143 42.675 17.4275 42.6024C17.2399 42.443 17.2177 42.1615 17.3801 41.9729L19.3654 39.6587C19.4481 39.5578 19.5752 39.4993 19.7054 39.4993C19.8355 39.4993 19.9616 39.5609 20.0453 39.6587L21.6543 41.5573L23.1877 39.6668C23.2744 39.5619 23.4227 39.4862 23.5347 39.5004C23.6608 39.5004 23.7839 39.5579 23.8676 39.6527L25.9357 41.9668C26.0981 42.1514 26.0839 42.4329 25.8993 42.5963C25.7147 42.7628 25.4292 42.7446 25.2668 42.56L23.5499 40.6403L22.0064 42.5459C21.9197 42.6467 21.7784 42.676 21.6594 42.7123C21.5252 42.7123 21.4032 42.6508 21.3194 42.5529L19.7034 40.6403L18.058 42.5529C17.9733 42.6609 17.8462 42.7113 17.7201 42.7113L17.7201 42.7113Z" fill="#2F5061"/>
<path opacity="0.7" d="M58.9937 56.8945C58.8888 56.8945 58.7879 56.8581 58.7012 56.7855C58.5136 56.6261 58.4914 56.3447 58.6538 56.156L60.6391 53.8419C60.7218 53.741 60.8489 53.6825 60.979 53.6825C61.1092 53.6825 61.2353 53.744 61.319 53.8419L62.928 55.7404L64.4614 53.85C64.5441 53.745 64.6389 53.6472 64.8084 53.6835C64.9345 53.6835 65.0576 53.741 65.1413 53.8358L67.2093 56.15C67.3717 56.3346 67.3576 56.616 67.173 56.7795C66.9884 56.9459 66.7029 56.9278 66.5405 56.7432L64.8236 54.8234L63.2821 56.729C63.1994 56.8299 63.0723 56.8914 62.9391 56.8955H62.9351C62.805 56.8955 62.6789 56.8339 62.5951 56.7361L60.9791 54.8234L59.3337 56.7361C59.247 56.844 59.1199 56.8945 58.9938 56.8945L58.9937 56.8945Z" fill="#2F5061"/>
<path opacity="0.7" d="M17.7201 66.5451C17.6151 66.5451 17.5143 66.5088 17.4275 66.4361C17.2399 66.2767 17.2177 65.9953 17.3801 65.8066L19.3654 63.4925C19.4481 63.3916 19.5752 63.3331 19.7054 63.3331C19.8355 63.3331 19.9616 63.3946 20.0453 63.4925L21.6543 65.3911L23.1877 63.5006C23.2744 63.3957 23.4227 63.316 23.5347 63.3341C23.6608 63.3341 23.7839 63.3916 23.8676 63.4865L25.9357 65.8006C26.0981 65.9852 26.0839 66.2667 25.8993 66.4301C25.7147 66.5965 25.4292 66.5743 25.2668 66.3938L23.5499 64.4741L22.0064 66.3797C21.9237 66.4805 21.7966 66.5421 21.6635 66.5461H21.6594C21.5252 66.5461 21.4032 66.4846 21.3195 66.3867L19.7034 64.4741L18.058 66.3867C17.9733 66.4947 17.8462 66.5451 17.7201 66.5451L17.7201 66.5451Z" fill="#2F5061"/>
<path opacity="0.7" d="M98.2266 47.773C98.1217 47.773 98.0209 47.7367 97.9341 47.664C97.7465 47.5047 97.7243 47.2232 97.8867 47.0346L99.872 44.7204C99.9547 44.6195 100.082 44.561 100.212 44.561C100.342 44.561 100.468 44.6226 100.552 44.7204L102.161 46.619L103.694 44.7285C103.777 44.6236 103.915 44.5227 104.041 44.562C104.167 44.562 104.29 44.6195 104.374 44.7144L106.442 47.0285C106.605 47.2131 106.591 47.4946 106.406 47.658C106.218 47.8245 105.94 47.8023 105.773 47.6217L104.056 45.702L102.513 47.6076C102.43 47.7084 102.303 47.77 102.17 47.774H102.166C102.036 47.774 101.91 47.7125 101.826 47.6146L100.21 45.702L98.5646 47.6146C98.4759 47.7185 98.3498 47.773 98.2267 47.773L98.2266 47.773Z" fill="#2F5061"/>
<path d="M87.5299 3.21197C87.425 3.21197 87.3241 3.17566 87.2373 3.10302C87.0497 2.94363 87.0275 2.66219 87.1899 2.47354L89.1752 0.159389C89.2579 0.058511 89.385 0 89.5152 0C89.6453 0 89.7714 0.0615351 89.8551 0.159389L91.4641 2.05794L92.9975 0.167475C93.0843 0.0625606 93.171 0.0151482 93.3446 0.00102455C93.4706 0.00102455 93.5937 0.0585274 93.6775 0.153352L95.7455 2.4675C95.9079 2.65211 95.8938 2.93356 95.7092 3.09698C95.5215 3.26343 95.2431 3.24124 95.0766 3.06067L93.3597 1.14094L91.8162 3.04654C91.7295 3.14742 91.5953 3.20896 91.4692 3.21299C91.335 3.21299 91.213 3.15145 91.1292 3.0536L89.5132 1.14095L87.8678 3.0536C87.7801 3.15751 87.653 3.21198 87.5299 3.21198L87.5299 3.21197Z" fill="#2F5061"/>
</svg>
