<svg width="214" height="351" viewBox="0 0 214 351" fill="none" xmlns="http://www.w3.org/2000/svg">
<path d="M-48.0736 314.465C-49.3589 315.41 -50.7152 316.281 -52.1005 317.123C-51.2305 316.34 -50.3916 315.498 -49.3993 314.886C-47.2361 313.553 -45.3292 311.798 -43.5113 310.032L-28.2427 295.194C-8.23975 275.756 11.3049 256.028 28.3394 233.98C33.3983 227.432 39.012 221.353 44.0898 214.811C48.627 208.965 52.0032 202.201 56.5695 196.454C61.2798 190.526 64.8001 183.432 68.3478 176.808C70.1148 173.508 72.0911 170.197 73.4509 166.723C74.0762 165.126 75.4588 164.04 76.0716 162.442C76.6677 160.887 77.0571 159.462 77.8949 157.989C81.6383 151.408 84.5895 144.358 87.0302 137.205C89.4019 130.254 90.5907 123.235 92.4703 116.149C94.2271 109.526 95.492 102.192 96.3466 95.3896C96.6603 92.8928 97.2531 90.4002 97.6137 87.8897C97.9752 85.3723 98.1254 82.8468 98.6414 80.3463C99.5078 76.1484 99.5304 71.7321 100.424 67.5751C101.05 64.6617 101.353 60.9404 102.458 58.1867C103.587 55.3712 106.854 47.6712 111.126 49.0532C114.015 49.9873 111.736 51.8787 112.139 53.7465C112.598 55.8753 112.143 59.1488 111.89 61.3609C111.001 69.1261 110.213 77.6291 108.645 85.5283L108.604 85.7309C105.336 102.198 102.093 118.532 97.7222 134.779C93.2851 151.272 82.9374 165.788 74.4163 180.294C65.2959 195.819 57.3111 211.966 46.6414 226.524C40.2994 235.178 33.9831 244.032 27.1373 252.298C21.8766 258.65 15.3815 264.156 9.4698 269.901C0.120615 278.986 -9.77197 286.868 -20.4326 294.346C-29.7382 300.874 -38.9145 307.73 -48.0736 314.465Z" fill="#4297A0" fill-opacity="0.56"/>
<path d="M144.428 57.6643C138.3 63.6189 132.646 69.8234 126.533 75.7634C123.573 78.6402 122.314 82.7409 122.255 86.8593C122.235 88.2671 121.605 88.2188 122.739 89.3856C123.524 90.1931 124.106 90.8804 125.151 91.2996C126.607 91.8836 129.094 93.817 130.88 93.3811C133.081 92.844 135.41 93.1367 137.732 92.3995C140.273 91.5929 142.76 90.0028 145.333 89.4291C148.232 88.7825 150.299 85.8226 153.116 84.8618C155.867 83.9234 158.589 80.0956 160.692 78.052C164.593 74.261 169.828 66.9803 168.054 60.9619C167.149 57.891 162.884 50.5705 158.926 50.5138C153.354 50.434 148.383 53.8207 144.428 57.6643Z" fill="#4297A0" fill-opacity="0.56"/>
<path d="M132.238 115.795C127.855 117.544 124.855 120.637 121.59 123.85C118.752 126.607 115.052 127.787 116.09 132.039C116.972 135.655 122.882 135.935 126.007 136.24C131.2 136.748 137.749 137.898 142.782 136.301C144.834 135.649 147.336 136.316 149.163 134.672C150.506 133.465 151.867 132.171 153.097 130.85C156.638 127.047 156.923 121.963 156.152 117.197C155.158 111.05 150.854 110.397 145.343 111.024C140.886 111.53 136.364 114.148 132.238 115.795Z" fill="#4297A0" fill-opacity="0.56"/>
<path d="M123.159 159.194C120.99 159.504 104.736 166.032 101.456 169.828C100.49 170.636 99.5417 171.539 98.5145 172.537C95.9074 175.071 94.7652 178.363 92.9882 181.456C90.691 185.455 98.4269 186.367 100.835 186.447C107.79 186.678 115.372 187.631 122.271 186.354C128.791 185.147 135.709 181.439 138.942 175.476C140.751 172.14 143.554 164.846 140.499 161.701C135.627 156.688 129.428 158.296 123.159 159.194Z" fill="#4297A0" fill-opacity="0.56"/>
<path d="M85.8454 66.3595C87.0941 68.7667 89.2597 70.9134 89.8737 73.6306C90.0735 74.1359 90.2517 74.6562 90.3937 75.1816C90.7121 76.3597 90.5379 78.0432 91.0144 79.1036C92.4524 82.3038 91.3939 86.6502 90.2697 89.7536C89.6222 91.541 88.1276 92.5401 86.7031 93.6157C85.3005 94.6747 84.2918 95.6185 82.414 94.76C79.6972 93.5178 77.7693 90.9674 75.7297 88.8686C72.9989 86.0585 70.4878 83.0881 67.7619 80.2831C63.8247 76.2315 60.0993 71.7301 57.3261 66.7973C55.8433 64.1599 54.6077 61.6509 54.6514 58.5943C54.7114 54.4056 58.8285 51.4242 61.8418 49.0836C63.3056 47.9466 65.8904 47.7326 67.6661 47.8238C70.5651 47.9727 73.2316 51.1475 75.0583 53.0273C78.9761 57.0589 83.241 61.3388 85.8454 66.3595Z" fill="#4297A0" fill-opacity="0.56"/>
<path d="M76.5569 116.78C77.8077 118.339 78.6949 119.952 79.2552 121.853C82.2306 124.915 78.0128 129.817 75.8752 131.894C73.8873 133.826 71.0838 135.671 68.17 135.253C65.6692 134.893 64.0626 133.286 62.1702 131.782C59.7956 129.896 57.6828 127.912 55.5944 125.702C53.0756 123.037 50.8112 119.714 48.7219 116.699C46.4061 113.356 44.0852 110.317 42.841 106.398C41.6965 102.793 40.724 97.5956 42.91 94.1943C43.7511 92.8856 44.8077 91.8138 45.9626 90.769C49.4081 87.6521 55.786 93.0665 57.9337 95.2766C62.1797 99.646 65.8452 104.468 70.0283 108.881C72.3817 111.365 74.4183 114.114 76.5569 116.78Z" fill="#4297A0" fill-opacity="0.56"/>
<path d="M44.6853 142.309C51.4492 148.893 57.0873 156.595 63.6223 163.32C64.7732 164.504 64.7839 165.053 65.5547 166.489C66.2577 167.798 63.6584 169.666 62.9076 170.396C60.8198 172.424 58.4398 173.759 55.5642 174.341C53.0288 174.854 50.2012 174.815 47.821 173.712C45.1664 172.482 43.3256 170.245 41.3219 168.183C36.0125 162.719 31.5118 156.602 28.1433 149.772C26.9455 147.343 26.4041 144.653 25.8761 142.029L25.8549 141.923C25.3672 139.5 26.785 137.933 28.3665 136.396C30.0229 134.786 31.5886 134.494 33.8539 135.026C35.3909 135.386 36.8271 136.568 38.1026 137.445C40.35 138.99 42.7235 140.399 44.6853 142.309Z" fill="#4297A0" fill-opacity="0.56"/>
</svg>
