<svg width="170" height="147" viewBox="0 0 170 147" fill="none" xmlns="http://www.w3.org/2000/svg">
<path d="M-7.34826 118.893C-9.07051 124.626 -9.79718 133.469 -14.0654 137.243C-11.4349 140.218 -16.8563 140.502 -10.4867 141.009C-7.51192 141.245 -3.3079 141.677 -0.334757 141.379C3.91128 140.953 9.10115 142.151 13.5919 142.924C19.3431 143.914 25.5751 143.185 31.3224 144.973C38.5168 147.212 47.7919 145.96 54.8259 146.027C64.6964 146.122 73.4006 143.026 83.1745 142.716C93.3891 142.393 105.309 141.027 114.721 138.592C122.585 136.557 132.535 137.529 139.789 134.313C146.114 131.51 155.058 131.288 160.202 126.739C164.464 122.969 167.54 119.218 169.676 113.686C171.839 108.085 144.307 102.715 141.631 102.223C123.994 98.984 107.697 99.2562 91.4678 102.101C81.4044 103.865 71.1801 106.233 61.4969 108.781C60.3917 109.071 48.2975 109.973 50.4855 107.72C53.7043 104.404 58.2567 101.714 62.4426 99.7247C70.0504 96.1089 75.9289 89.5714 82.1298 84.0879C101.54 66.9235 124.438 53.408 141.261 33.2478C147.983 25.192 154.709 15.5695 156.268 4.02118C157.386 -4.26305 147.619 3.49134 145.09 4.88086C118.903 19.2682 96.4534 39.5096 74.3542 59.0523C68.0325 64.6427 62.0288 70.0977 56.726 76.7364C52.2328 82.3615 46.553 86.6873 43.009 93.2181C40.2626 98.2791 38.4629 103.846 34.1802 107.633C32.444 109.169 28.4288 114.904 25.6502 114.371C21.7366 113.62 31.3319 91.2411 32.89 87.8224C38.278 75.9998 44.5878 65.7018 47.1692 52.1477C48.9845 42.6164 49.2136 32.0361 51.4455 22.7401C51.9695 20.5574 53.5522 17.6902 50.632 15.5622C47.0616 12.9605 41.6379 18.3584 39.9425 19.8576C22.0309 35.6971 12.5674 57.9436 3.13431 80.6124C-1.91997 92.7583 -3.53722 106.207 -7.34826 118.893Z" fill="#F7B965" fill-opacity="0.56"/>
</svg>
