<svg width="216" height="123" viewBox="0 0 216 123" fill="none" xmlns="http://www.w3.org/2000/svg">
<path d="M175.312 62.3451C178.17 61.4381 181.21 60.9449 184.37 60.9445L184.371 60.946C201.003 60.946 214.5 74.4924 214.5 91.2247C214.5 107.954 201.007 121.5 184.372 121.5C184.361 121.5 184.34 121.499 184.262 121.493L184.247 121.492C184.181 121.487 184.066 121.479 183.944 121.477L183.889 121.477L183.834 121.48C183.772 121.484 183.719 121.49 183.682 121.495C183.667 121.497 183.654 121.498 183.643 121.5H37.455C37.4484 121.499 37.4334 121.498 37.4064 121.494L37.3839 121.491C37.3561 121.487 37.3117 121.481 37.2825 121.477C37.2302 121.471 37.1616 121.462 37.0845 121.457L37.065 121.455L37.0455 121.454C17.2657 120.522 1.5 104.112 1.5 83.9895C1.5 68.1811 11.2363 54.6686 25.0072 49.145L25.8493 48.8073L25.9411 47.9045C28.5915 21.8313 50.5076 1.5 77.1431 1.5C98.7411 1.5 117.227 14.8736 124.864 33.836L125.521 35.4676L127.029 34.5611C131.626 31.7963 136.978 30.1821 142.718 30.1821C159.614 30.1821 173.323 43.9286 173.358 60.9185L173.363 62.9636L175.312 62.3451Z" fill="white" fill-opacity="0.53" stroke="white" stroke-width="3"/>
</svg>
