<svg width="127" height="75" viewBox="0 0 127 75" fill="none" xmlns="http://www.w3.org/2000/svg">
<path d="M103.279 38.5683C104.896 38.0361 106.615 37.7469 108.403 37.7467L108.403 37.7476C117.788 37.7476 125.5 45.6909 125.5 55.6248C125.5 65.5518 117.797 73.4922 108.418 73.5C108.413 73.4997 108.404 73.499 108.389 73.4979C108.358 73.4955 108.263 73.4874 108.16 73.4862L108.102 73.4855L108.045 73.4893C108 73.4922 107.961 73.4964 107.932 73.5H22.0651L22.0545 73.4985C22.049 73.4977 22.0425 73.4968 22.0354 73.4958C22.0267 73.4946 22.0169 73.4932 22.0067 73.4919C21.9698 73.4869 21.9161 73.4803 21.8536 73.4755L21.8334 73.474L21.8131 73.473C10.56 72.9226 1.5 63.2202 1.5 51.2131C1.5 41.7879 7.09576 33.7701 14.9511 30.5026L15.7802 30.1577L15.8678 29.2639C17.4015 13.6168 30.065 1.5 45.3573 1.5C57.761 1.5 68.4209 9.46676 72.8353 20.8331L73.4909 22.5211L75.0274 21.5627C77.6373 19.9349 80.6674 18.9891 83.9129 18.9891C93.4525 18.9891 101.29 27.055 101.31 37.1465L101.314 39.2149L103.279 38.5683ZM107.862 73.5095C107.862 73.5095 107.865 73.5092 107.869 73.5086L107.868 73.5088L107.863 73.5095L107.862 73.5095Z" fill="white" fill-opacity="0.53" stroke="white" stroke-width="3"/>
</svg>
