<svg width="113" height="94" viewBox="0 0 113 94" fill="none" xmlns="http://www.w3.org/2000/svg">
<path d="M31.6553 38.4984C33.6421 43.8474 34.6645 49.4798 36.2135 54.9719C36.2135 56.4636 34.6856 55.9315 33.4413 55.9315C31.8772 55.9315 30.1757 55.6619 28.6832 55.2251C26.2441 54.5112 23.6712 54.2329 21.2194 53.5324C16.8878 52.2948 12.4128 51.4902 7.9047 51.3866C5.66008 51.335 3.06329 51.0426 0.827503 51.3866C-0.414129 51.5776 0.0272746 52.7428 0.334365 53.5324C1.23147 55.8393 3.13478 57.4016 5.1458 58.797C8.5546 61.1623 12.9074 62.4927 16.7679 63.955C19.831 65.1152 23.4415 66.2857 26.7373 66.474C27.1766 66.4991 30.3875 66.2099 29.9626 66.8472C29.1985 67.9933 27.7566 68.632 26.7239 69.4995C22.0023 73.4656 16.594 76.9427 15.0219 83.374C14.5326 85.3757 14.5072 88.9307 15.3684 90.8377C15.7747 91.7372 16.3438 93.192 17.261 93.6766C17.9473 94.0391 19.0554 93.8365 19.8067 93.8365C22.4903 93.8365 25.1712 92.2996 27.337 90.8377C30.2565 88.867 33.1587 86.8383 35.4538 84.1203C38.1282 80.9533 40.7819 77.0125 42.0912 73.0847C42.3255 72.3816 42.6599 71.6934 42.8775 70.9922C42.9043 70.9061 42.9507 69.8341 43.1708 70.2192C43.4301 70.673 44.0205 70.9629 44.4236 71.2854C45.4807 72.1311 46.4348 73.0778 47.3691 74.0576C50.0371 76.8558 51.9526 80.2173 54.4463 83.1474C57.4824 86.7148 63.188 90.9866 68.0009 88.4386C70.6478 87.0374 69.4322 83.688 68.8539 81.3748C67.7893 77.1162 62.6443 74.4454 59.7375 71.5386C57.9595 69.7607 55.5849 67.7628 53.3534 66.5939C51.9854 65.8774 50.6843 64.9224 50.0214 63.5018C49.2741 61.9005 54.9609 62.6452 55.7391 62.6622C64.6095 62.855 73.4195 63.0625 82.2753 63.6084C89.7335 64.0682 97.5627 64.3001 105.013 63.5018C107.916 63.1907 111.247 62.471 112.583 59.5301C113.195 58.1835 112.87 55.3081 112.21 54.0122C110.693 51.0318 106.218 50.2948 103.334 49.694C96.6532 48.3022 89.7458 49.1307 82.995 49.4007C76.4219 49.6637 69.6241 49.854 63.1895 51.3733C61.6711 51.7318 60.1265 52.3526 58.578 52.5462C58.5554 52.549 57.4127 52.6801 57.6184 52.3862C60.7181 47.9581 65.5766 45.1169 69.8535 41.8304C74.0731 38.588 78.4462 34.27 81.0758 29.5952C82.6978 26.7115 83.3205 22.6597 82.2753 19.4659C80.5431 14.173 74.9267 13.7773 70.1468 14.1347C66.8756 14.3793 64.1495 14.7919 61.5901 17.0669C58.664 19.6678 57.1989 23.538 55.8857 27.1429C54.1902 31.7972 53.2441 36.6225 52.2338 41.4572C51.6624 44.1917 51.1518 47.2641 50.128 49.8805C50.0214 50.153 49.1684 52.1347 49.1684 50.8935C49.1684 49.7477 49.2572 48.5648 49.1151 47.4282C48.7332 44.3735 48.4227 41.3055 47.9689 38.2585C47.0992 32.4191 44.6481 26.56 42.2111 21.1986C39.6325 15.5255 37.4882 9.79731 33.8678 4.6451C32.761 3.07005 31.4993 1.39502 29.7361 0.5134C27.5828 -0.563254 24.7898 0.0885828 23.4985 2.13942C22.7959 3.25536 23.3128 5.50564 23.4452 6.69762C23.9385 11.1369 25.4215 15.3388 26.6173 19.6258C28.3557 25.8579 29.3994 32.4248 31.6553 38.4984Z" fill="#F79C88" fill-opacity="0.51"/>
</svg>
