<svg width="259" height="61" viewBox="0 0 259 61" fill="none" xmlns="http://www.w3.org/2000/svg">
<path d="M215.597 0.377436C214.468 0.81664 213.395 1.423 212.356 1.99446C213.52 3.41097 217.14 3.79265 219.323 3.90646C224.209 4.16115 228.992 4.25499 233.833 4.82859C238.604 5.39383 243.574 4.78883 246.851 7.6788C251.194 11.5078 252.15 17.3717 252.769 21.9634C253.588 28.0524 256.056 33.9973 257.039 40.0873C257.426 42.4843 258.847 44.7296 258.892 47.1458C258.933 49.3862 258.892 51.6283 258.892 53.8689C258.892 54.4501 259.335 55.8885 258.428 56.1994C256.141 56.9839 253.836 57.7083 251.585 58.5466C240.239 62.7717 226.358 60.3955 214.024 59.7538C199.718 59.0095 185.766 58.2448 171.394 58.2448H129.304C114.639 58.2448 99.8088 58.6472 85.1824 57.876C72.0068 57.1813 58.8204 56.6422 45.6399 55.9814C32.8522 55.3404 20.3594 53.4163 7.53811 53.4163C2.85692 53.4163 3.98773 47.8499 2.59852 45.6369C1.96836 44.633 -0.375045 43.6856 0.0515368 42.4346C0.202777 41.991 4.70307 42.2466 5.17122 42.2334C18.0296 41.869 30.889 42.0819 43.7618 41.8813C71.4922 41.4492 100.04 39.3663 126.063 32.7942C151.109 26.4686 174.645 17.5047 197.507 8.4165C201.971 6.64184 206.432 4.85853 210.679 2.86697C211.23 2.60853 211.788 2.30671 212.356 1.99446C212.307 1.93505 212.263 1.87383 212.223 1.81072C211.842 1.20782 214.274 0.588472 215.597 0.377436Z" fill="url(#paint0_linear_5_400)" fill-opacity="0.4"/>
<defs>
<linearGradient id="paint0_linear_5_400" x1="273" y1="30.5" x2="12.3852" y2="55.8678" gradientUnits="userSpaceOnUse">
<stop stop-color="#ECC0A2"/>
<stop offset="1" stop-color="#ECC0A2" stop-opacity="0"/>
</linearGradient>
</defs>
</svg>
