<svg width="398" height="122" viewBox="0 0 398 122" fill="none" xmlns="http://www.w3.org/2000/svg">
<path opacity="0.2" d="M-163.31 4.85016C-163.094 4.16461 -162.182 3.58042 -160.835 3.08484C-155.745 1.21198 -144.428 0.604586 -140.87 0.574598C-132.383 0.503055 -123.241 1.15414 -114.961 2.54571C-108.044 3.70807 -101.661 4.78091 -95.6266 7.24129C-89.0718 9.91361 -83.3798 12.8712 -77.2292 15.8354C-71.9364 18.3861 -66.7882 21.2663 -61.1885 23.5672C-53.5008 26.7261 -43.7299 26.6769 -34.9899 26.5436C-17.5452 26.2775 -0.132829 24.6129 17.401 27.1646C23.6423 28.0729 29.0458 29.3034 34.354 31.5035C38.5114 33.2267 40.9948 35.6353 44.3165 37.842C52.1523 43.0478 59.8217 47.0725 70.8801 49.6041C84.7988 52.7904 99.7065 52.8828 114.192 53.5784C128.624 54.2714 139.33 56.7396 150.917 62.0831C156.69 64.7458 158.708 68.3248 163.284 71.4011C165.766 73.0696 168.572 73.9619 171.188 75.3495C174.877 77.3061 182.305 77.9145 186.915 78.6823C192.485 79.6099 198.341 81.6956 203.202 83.6281C211.55 86.9467 219.325 91.0215 228.149 93.9466C242.83 98.8133 259.914 100.89 275.448 104.633C287.306 107.491 298.976 110.394 311.527 111.741C326.868 113.389 342.499 113.889 357.756 115.834C364.352 116.674 370.921 117.695 377.526 118.479C382.174 119.031 386.502 120.188 391.222 120.415C393.119 120.506 401.84 120.867 394.961 120.594C389.733 120.387 384.458 120.764 379.281 120.943C365.127 121.431 351.038 121.059 336.808 120.578C293.66 119.118 250.614 117.538 207.515 114.766C183.157 113.199 158.818 111.78 134.419 111.476C124.897 111.358 115.437 111.57 105.934 111.629C90.8528 111.722 75.7166 110.898 60.6357 110.004C34.8497 108.477 9.44952 104.941 -16.3065 103.314C-33.6078 102.221 -50.9221 102.036 -68.2071 101.064C-99.4063 99.3104 -130.989 92.2174 -158.773 83.1225C-165.957 80.7707 -171.647 77.1774 -177.976 74.1372C-184.436 71.0342 -190.692 69.7042 -198.207 67.8344C-205.465 66.0285 -212.813 62.7066 -213.045 57.6929C-213.33 51.5423 -210.086 46.0187 -207.153 40.3293C-202.278 30.8757 -189.339 24.2451 -177.307 18.0796C-172.055 15.3884 -167.869 12.8531 -166.192 8.98606C-165.723 7.90573 -164.696 6.21785 -163.31 4.85016Z" fill="url(#paint0_linear_5_393)"/>
<defs>
<linearGradient id="paint0_linear_5_393" x1="-311.946" y1="21.2064" x2="378.062" y2="269.801" gradientUnits="userSpaceOnUse">
<stop stop-color="#E57F84"/>
<stop offset="1" stop-color="#E57F84" stop-opacity="0"/>
</linearGradient>
</defs>
</svg>
