<svg width="502" height="140" viewBox="0 0 502 140" fill="none" xmlns="http://www.w3.org/2000/svg">
<path opacity="0.3" d="M441.596 1.03097C444.088 1.70731 456.204 5.03049 456.267 8.53344C462.125 9.70946 470.919 13.7497 475.416 18.1545C479.377 22.0333 487.989 27.57 489.926 33.1986C491.136 36.7117 494.51 40.4923 496.378 43.7367C498.179 46.8637 498.339 50.6795 499.089 54.1013C500.17 59.039 504.056 64.8149 497.437 68.7891C492.372 71.83 486.091 73.4335 480.472 74.1128C457.814 76.8517 435.227 74.4229 412.569 76.2705C318.332 83.9549 223.492 93.681 130.348 115.828C111.879 120.22 93.6076 125.203 75.2283 130.116C64.0125 133.114 52.0562 136.949 40.633 138.191C34.6394 138.842 28.1062 140.296 22.1287 139.675C19.2536 139.376 16.7892 138.668 13.8697 138.98C10.7769 139.31 7.10265 137.878 4.06725 137.269C2.07094 136.868 -2.36057 135.223 2.33347 134.674C27.3855 131.744 52.0686 123.642 76.7381 117.261C88.0632 114.332 99.8674 112.356 110.97 108.472C117.513 106.183 122.869 101.376 128.878 97.8821C135.011 94.316 139.984 89.1941 145.703 84.8282C152.806 79.4053 161.969 77.2305 170.1 74.7706C180.088 71.7483 190.69 70.9018 200.806 68.0978C210.646 65.3704 220.746 62.7406 230.291 58.805C243.512 53.3539 256.989 49.308 269.817 42.7345C277.114 38.9957 285.238 32.2891 291.774 26.8597C314.473 8.00597 348.234 -2.1605 375.262 2.66947C387.537 4.86312 399.86 6.45235 412.112 8.91201C415.995 9.69145 417.046 7.27679 420.389 5.31024C427.871 0.908533 433.049 -1.28851 441.596 1.03097Z" fill="url(#paint0_linear_5_397)"/>
<defs>
<linearGradient id="paint0_linear_5_397" x1="497.173" y1="29.3315" x2="5.3801" y2="87.9979" gradientUnits="userSpaceOnUse">
<stop stop-color="#E57F84"/>
<stop offset="1" stop-color="#E57F84" stop-opacity="0"/>
</linearGradient>
</defs>
</svg>
