<svg width="409" height="104" viewBox="0 0 409 104" fill="none" xmlns="http://www.w3.org/2000/svg">
<path d="M407.347 34.9203C407.862 41.0718 403.136 47.6794 393.331 54.3634C383.602 60.9955 369.195 67.474 351.135 73.4266C315.029 85.3267 264.537 95.0552 208.223 99.771C151.909 104.487 100.501 103.292 62.9196 97.5622C44.1207 94.6963 28.8376 90.704 18.1408 85.7823C7.36052 80.8222 1.60131 75.0926 1.08618 68.9412C0.571044 62.7897 5.29712 56.182 15.1023 49.4981C24.8316 42.8659 39.2378 36.3874 57.2983 30.4348C93.4038 18.5347 143.897 8.80619 200.21 4.0904C256.524 -0.625396 307.932 0.56982 345.514 6.29923C364.313 9.16516 379.596 13.1574 390.292 18.0791C401.073 23.0392 406.832 28.7688 407.347 34.9203Z" stroke="#F1E2D7" stroke-width="2"/>
</svg>
